<?xml version="1.0" encoding="iso-8859-1"?>
<!-- Generator: Adobe Illustrator 19.0.0, SVG Export Plug-In . SVG Version: 6.00 Build 0)  -->
<svg version="1.1" id="Layer_1" xmlns="http://www.w3.org/2000/svg" xmlns:xlink="http://www.w3.org/1999/xlink" x="0px" y="0px"
	 viewBox="0 0 511.915 511.915" style="enable-background:new 0 0 511.915 511.915;" xml:space="preserve">
<g>
	<g>
		<g>
			<path d="M196.184,278.721c16.521,0,25.6-6.409,25.6-8.533c0-2.125-9.079-8.533-25.6-8.533c-16.521,0-25.6,6.409-25.6,8.533
				C170.584,272.312,179.663,278.721,196.184,278.721z"/>
			<path d="M370.192,277.646c9.481-2.167,17.562-7.902,22.733-16.137l8.875-13.082c-16.333-7.142-18.927-7.671-19.849-7.825
				c-2.825-1.015-13.005-6.775-26.914-15.002l0.512-0.512c3.337-3.337,3.337-8.738,0-12.066c-3.328-3.337-8.73-3.337-12.066,0
				l-3.558,3.55c-7.006-4.215-14.473-8.747-22.153-13.44l1.647-1.647c3.328-3.328,3.328-8.73,0-12.066
				c-3.337-3.328-8.738-3.328-12.066,0l-4.531,4.531c-5.615-3.464-11.23-6.929-16.725-10.342l1.451-1.451
				c3.336-3.337,3.336-8.738,0-12.066c-3.328-3.336-8.73-3.336-12.066,0l-4.241,4.241c-22.409-14.046-40.704-25.805-45.73-29.568
				c-19.874-14.942-50.79,6.238-54.793,9.122c-2.364,1.98-4.608,3.78-6.861,5.589L342.74,273.004
				C350.924,278.158,360.695,279.813,370.192,277.646z"/>
			<path d="M477.67,280.405l-3.934-1.493c-14.379-5.453-29.244-11.102-43.324-17.57c-4.745-2.185-8.951-4.105-12.792-5.845
				l-10.411,15.343c-7.424,11.844-19.285,20.258-33.22,23.441c-3.994,0.913-8.021,1.365-12.023,1.365
				c-9.941,0-19.703-2.79-28.331-8.209L149.342,170.487c-36.847,26.291-56.917,27.179-66.185,24.781
				c-9.105-2.364-12.74-8.866-13.585-10.667c-2.074-12.416-6.349-28.612-18.935-31.565c-12.245-2.893-21.743,9.813-23.151,11.827
				C9.199,195.199,1.818,223.53,0.154,248.029l4.062-2.313c11.17-6.443,24.448-9.865,38.366-9.865c42.351,0,76.8,34.449,76.8,76.8
				c0,2.816-0.222,5.675-0.563,8.533h-17.212c0.427-2.876,0.708-5.734,0.708-8.533c0-32.93-26.795-59.733-59.733-59.733
				c-10.931,0-21.257,2.628-29.867,7.595L0,267.775c1.425,26.658,9.079,46.993,14.165,57.83c-3.482,3.132-5.717,7.612-5.717,12.646
				v17.058c0,9.412,7.663,17.067,17.067,17.067l432.956-0.009c0.188,0.009,1.152,0.068,2.714,0.068
				c7.023,0,25.907-1.178,38.622-13.013c7.97-7.424,12.049-17.399,12.109-29.653v-0.026v-0.026
				C511.915,307.003,499.115,288.571,477.67,280.405z M196.181,244.59c24.329,0,42.667,11.008,42.667,25.6
				c0,14.592-18.338,25.6-42.667,25.6c-24.32,0-42.667-11.008-42.667-25.6C153.515,255.598,171.861,244.59,196.181,244.59z
				 M488.218,346.888c-10.086,9.446-28.459,8.465-29.193,8.431l-433.51-0.009v-17.058h0.444h82.671h384.99
				C492.544,341.665,490.752,344.524,488.218,346.888z"/>
		</g>
	</g>
</g>
<g>
</g>
<g>
</g>
<g>
</g>
<g>
</g>
<g>
</g>
<g>
</g>
<g>
</g>
<g>
</g>
<g>
</g>
<g>
</g>
<g>
</g>
<g>
</g>
<g>
</g>
<g>
</g>
<g>
</g>
</svg>
